<svg width="30" height="33" viewBox="0 0 30 33" fill="none" xmlns="http://www.w3.org/2000/svg">
<path d="M26.7857 0.389221H3.21429C1.43973 0.389221 0 1.94607 0 3.86499V29.3539C0 31.2728 1.43973 32.8297 3.21429 32.8297H26.7857C28.5603 32.8297 30 31.2728 30 29.3539V3.86499C30 1.94607 28.5603 0.389221 26.7857 0.389221ZM23.5112 11.8882C23.5246 12.091 23.5246 12.301 23.5246 12.5037C23.5246 18.7818 19.1049 26.0157 11.029 26.0157C8.53795 26.0157 6.22768 25.2337 4.28571 23.8868C4.64062 23.9303 4.98214 23.9448 5.34375 23.9448C7.39955 23.9448 9.28795 23.1917 10.7946 21.9172C8.86607 21.8738 7.24554 20.5052 6.68973 18.6225C7.36607 18.7311 7.97545 18.7311 8.67188 18.5356C6.66295 18.0939 5.15625 16.1822 5.15625 13.8723V13.8144C5.73884 14.1692 6.42187 14.3864 7.13839 14.4154C6.536 13.9821 6.04218 13.3943 5.70098 12.7044C5.35979 12.0145 5.18185 11.244 5.18304 10.4617C5.18304 9.57828 5.39732 8.76726 5.77902 8.06487C7.94196 10.9469 11.1897 12.8296 14.8326 13.0323C14.2098 9.80999 16.4397 7.19593 19.1183 7.19593C20.3839 7.19593 21.5223 7.76798 22.3259 8.69485C23.317 8.4921 24.2679 8.09383 25.1116 7.55074C24.7835 8.6514 24.0938 9.57827 23.183 10.1648C24.067 10.0634 24.9241 9.79551 25.7143 9.42621C25.1183 10.3748 24.3683 11.2148 23.5112 11.8882Z" fill="#2824C1"/>
</svg>
