<svg width="30" height="33" viewBox="0 0 30 33" fill="none" xmlns="http://www.w3.org/2000/svg">
<path d="M26.7857 0.389221H3.21429C2.3618 0.389221 1.54424 0.755417 0.941442 1.40725C0.338647 2.05908 0 2.94316 0 3.86499L0 29.3539C0 30.2758 0.338647 31.1598 0.941442 31.8117C1.54424 32.4635 2.3618 32.8297 3.21429 32.8297H12.4051V21.8007H8.18638V16.6095H12.4051V12.6529C12.4051 8.15249 14.8828 5.66659 18.6777 5.66659C20.4951 5.66659 22.3955 6.01706 22.3955 6.01706V10.4342H20.3016C18.2384 10.4342 17.5949 11.8187 17.5949 13.2387V16.6095H22.2007L21.4641 21.8007H17.5949V32.8297H26.7857C27.6382 32.8297 28.4558 32.4635 29.0586 31.8117C29.6614 31.1598 30 30.2758 30 29.3539V3.86499C30 2.94316 29.6614 2.05908 29.0586 1.40725C28.4558 0.755417 27.6382 0.389221 26.7857 0.389221Z" fill="#2824C1"/>
</svg>
