<svg width="29" height="33" viewBox="0 0 29 33" fill="none" xmlns="http://www.w3.org/2000/svg">
<path d="M26.9286 0.389221H2.06496C0.92567 0.389221 0 1.43919 0 2.72812V30.4908C0 31.7797 0.92567 32.8297 2.06496 32.8297H26.9286C28.0679 32.8297 29 31.7797 29 30.4908V2.72812C29 1.43919 28.0679 0.389221 26.9286 0.389221ZM8.76473 28.1953H4.46652V12.7137H8.7712V28.1953H8.76473ZM6.61562 10.5993C5.23683 10.5993 4.12344 9.34656 4.12344 7.81143C4.12344 6.2763 5.23683 5.02357 6.61562 5.02357C7.98795 5.02357 9.10781 6.2763 9.10781 7.81143C9.10781 9.3538 7.99442 10.5993 6.61562 10.5993ZM24.8766 28.1953H20.5783V20.6645C20.5783 18.8687 20.546 16.5588 18.3451 16.5588C16.1054 16.5588 15.7623 18.5139 15.7623 20.5342V28.1953H11.4641V12.7137H15.5875V14.8281H15.6458C16.2219 13.6116 17.6266 12.3299 19.7174 12.3299C24.0674 12.3299 24.8766 15.5378 24.8766 19.7087V28.1953Z" fill="#2824C1"/>
</svg>
